<?xml version="1.0" standalone="no"?> <!DOCTYPE svg PUBLIC "-//W3C//DTD SVG 1.1//EN" "http://www.w3.org/Graphics/SVG/1.1/DTD/svg11.dtd" > <svg xmlns="http://www.w3.org/2000/svg" xmlns:xlink="http://www.w3.org/1999/xlink" version="1.1" viewBox="0 0 1000 1000">  <g transform="matrix(1 0 0 -1 0 859)">  <path fill="#ffffff" d="M623 302q25 7 35.5 7t47.5 -11q33 -8 50.5 -27t33.5 -62q21 -52 22 -79.5t-15 -77.5q-18 -58 -43 -82q-25 -22 -64 -48.5t-49 -26.5t-55.5 -24t-49.5 -22q0 1 10 10t27.5 25.5t38.5 33.5q69 57 91.5 84t39.5 71q28 73 5 131q-21 53 -58 53q-19 0 -19 -8q0 -5 7 -8 q9 -6 5 -24.5t-19 -41.5q-22 -31 -41 -70q-20 -38 -38 -46.5t-49 4.5q-30 10 -38.5 24t-12.5 54q-3 29 -1 42t11 32q14 28 21.5 28t23.5 19q14 15 30 23t53 17zM623 227q0 19 -27 6q-11 -6 -23 -16q-42 -37 -21 -77l11 -22l14 16q12 16 29 49.5t17 43.5zM328 642q27 11 63 2 t38 -25q3 -11 -18.5 -22t-78.5 -27q-106 -31 -132 -6q-8 8 -6 10.5t16 5.5q19 4 63.5 31.5t54.5 30.5zM580 745q16 5 44 -6.5t47 -31.5q14 -15 10 -34q-2 -12 1 -15t13 -3q39 0 -5 -48q-8 -8 -17 -18q-39 -36 -35.5 -40t26.5 2q25 7 53.5 -2.5t28.5 -25.5q0 -7 -31 -51 l-32 -45l20 5q20 4 51 21q38 18 76.5 11t38.5 -32q0 -10 -9.5 -16t-49.5 -19q-74 -21 -101 -31t-58 -26q-39 -21 -42 -21q-12 0 -97 -45t-98 -56q-24 -24 -54.5 -67t-48.5 -80q-17 -32 -31 -42t-26 2.5t-25 48.5l-11 37l17 14q17 13 28 42q8 22 6.5 26t-12.5 4q-17 0 -38 20 t-28 20t-34 19q-17 11 -23 18.5t1 18t25.5 21.5t57.5 30q55 28 70.5 38.5t20.5 26.5q6 20 7.5 59.5t-4.5 55.5t8 15q15 0 38 -21q20 -16 21.5 -29t-6.5 -77q-5 -42 2 -47q8 -5 7 -31.5t-9 -51.5q-9 -30 -6 -31q6 0 37 38q20 24 26.5 28.5t12.5 -2.5q6 -8 13 -6t33 18 q31 18 103 85t72 77q0 25 -63 -39q-30 -31 -47.5 -41.5t-27.5 -2.5t-16 35q-2 15 3 26.5t27 40.5q35 44 35 47q0 1 -6 1t-16 -0.5t-22 -0.5q-44 -4 -47.5 4t34.5 26q33 16 75.5 40.5t42.5 28.5q0 1 -3.5 1t-9.5 -0.5t-14 -2.5q-22 -3 -27 4t9 19q22 19 -6 43q-7 6 -9.5 8.5 t-3 5t1 3.5t6.5 4z" />  </g> </svg>