<?xml version="1.0" encoding="UTF-8"?>
<svg width="73px" height="80px" viewBox="0 0 73 80" version="1.1" xmlns="http://www.w3.org/2000/svg"
    xmlns:xlink="http://www.w3.org/1999/xlink">
    <title>logo (1)</title>
    <g id="页面-1" stroke="none" stroke-width="1" fill="none" fill-rule="evenodd">
        <g id="编组-6" transform="translate(-67.952, 2.9917)">
            <g id="logo-(1)" transform="translate(68.952, 0)">
                <circle id="椭圆形" fill="#FFFFFF" fill-rule="nonzero" cx="34.8519392" cy="37.3816409" r="4.38875681">
                </circle>
                <path
                    d="M6.57143061,44.7953305 C10.1543618,46.6962031 15.0131826,48.2233581 20.6694253,49.1941992 C25.0484853,49.9458239 29.9055078,50.3640025 35.018463,50.3640025 C39.8463179,50.3640025 44.4459862,49.9911593 48.6305468,49.3168069"
                    id="路径" stroke="#FFFF00" stroke-width="2"></path>
                <path
                    d="M48.8785657,24.7236145 C44.6280036,24.0237679 39.9418885,23.6360172 35.018463,23.6360172 C29.9856707,23.6360172 25.2008489,24.0411859 20.8757469,24.7707139 C15.363866,25.7004195 10.5986061,27.1569101 7.01822822,28.9729334"
                    id="路径" stroke="#FFFF00" stroke-width="2"></path>
                <path
                    d="M58.4492986,38.7813153 C57.6947774,38.6242934 56.9234329,38.4775723 56.1365597,38.3416462 C51.7380738,37.5818431 46.8543731,37.1593431 41.711552,37.1604267"
                    id="路径" stroke="#f44336" stroke-width="4"
                    transform="translate(50.0804, 37.9709) rotate(60) translate(-50.0804, -37.9709)"></path>
                <path d="M29.2096046,61.9835835 C34.8942644,61.0866441 39.8262877,59.6347032 43.5425174,57.8047326"
                    id="路径" stroke="#f44336" stroke-width="4"
                    transform="translate(36.3761, 59.8942) rotate(60) translate(-36.3761, -59.8942)"></path>
                <path
                    d="M35.0213609,50.3690423 C40.0172033,50.3701109 44.7685247,49.9714488 49.0680667,49.2521591 C53.5499726,48.502361 57.5409622,47.4041599 60.8062707,46.0471723 C66.5304521,43.6683332 70.0245342,40.4942139 70.0237789,37.0076008 C70.0237789,34.0103008 67.4398432,31.2428183 63.0775446,29.0122158 C59.307735,27.0845746 54.2093469,25.5578788 48.3010181,24.6302985 C44.2043022,23.987133 39.7181866,23.6320077 35.0155644,23.6309778 C29.7295191,23.6298401 24.7172278,24.0762314 20.2242056,24.8764362 C16.0344067,25.6226371 12.2961536,26.676507 9.20853291,27.962049 C3.49747239,30.3398696 0.0123921676,33.5103001 0.0131469276,36.9924195 C0.0131469276,39.8875507 2.42397058,42.5682651 6.51952194,44.7578416 C10.320056,46.789695 15.5718861,48.3986191 21.6962996,49.3634889 C25.8037016,50.0105889 30.3035789,50.3680027 35.0213609,50.3690423 Z"
                    id="椭圆形" stroke="#448aff" stroke-width="4"
                    transform="translate(35.0185, 37) rotate(120) translate(-35.0185, -37)"></path>
                <path
                    d="M51.919039,67.7649818 C56.5150871,65.5017652 59.252186,62.6603327 59.252186,59.5754569 C59.2528966,56.2942116 56.1583496,53.2897315 51.0227019,50.9644178 C47.7822041,49.4971882 43.7290676,48.3003601 39.1281153,47.4750226"
                    id="路径" stroke="#f44336" stroke-width="4"
                    transform="translate(49.1902, 57.62) rotate(60) translate(-49.1902, -57.62)"></path>
                <path
                    d="M40.4378752,14.2492961 C35.536122,14.2503711 30.8695993,14.6361633 26.6341069,15.3318668 C20.4411925,16.3490878 15.1697669,18.0288606 11.4318776,20.137323 C7.64341149,22.2743147 5.4296613,24.8516755 5.4296613,27.6259212 C5.4296613,30.7052851 8.15442468,33.5408926 12.7346444,35.80014 C16.261298,37.5397035 20.8875838,38.9375655 26.2157593,39.8418967 C30.5598266,40.579199 35.370451,40.9884436 40.4320787,40.987367 C45.1564062,40.9863237 49.6622238,40.6279187 53.7742335,39.9791158"
                    id="路径" stroke="#f44336" stroke-width="4"
                    transform="translate(29.6019, 27.6183) rotate(60) translate(-29.6019, -27.6183)"></path>
                <path
                    d="M7.01822822,28.9729334 C2.61174333,31.207971 0,33.9875932 0,37.0000098 C0,39.9091621 2.43575339,42.6012065 6.57143061,44.7953305"
                    id="路径" stroke="#FFFF00" stroke-width="2"></path>
                <path
                    d="M60.5752723,46.1363748 C66.4435382,43.7466647 70.036926,40.5334834 70.036926,37.0000098 C70.036926,34.0485087 67.5297413,31.3204823 63.2838062,29.1091861 C59.6150035,27.1984623 54.6480078,25.6735416 48.8785657,24.7236145"
                    id="路径" stroke="#FFFF00" stroke-width="2"></path>
                <path
                    d="M48.6305468,49.3168069 C53.1838962,48.5830233 57.2457463,47.4922441 60.5752723,46.1363748 C66.4435382,43.7466647 70.036926,40.5334834 70.036926,37.0000098 C70.036926,34.0485087 67.5297413,31.3204823 63.2838062,29.1091861"
                    id="路径" stroke="#FFFF00" stroke-width="2"></path>
            </g>
        </g>
    </g>
</svg>