<?xml version="1.0" encoding="UTF-8"?>
<svg width="318px" height="52px" viewBox="0 0 318 52" version="1.1" xmlns="http://www.w3.org/2000/svg" xmlns:xlink="http://www.w3.org/1999/xlink">
    <title>redblue</title>
    <g id="页面-1" stroke="none" stroke-width="1" fill="none" fill-rule="evenodd">
        <g id="redblue" transform="translate(0.388, 0.744)" fill="#FFFFFF" fill-rule="nonzero">
            <path d="M0,50.256 L7.776,50.256 L7.776,31.752 L21.024,31.752 L30.672,50.256 L39.168,50.256 L27.648,30.672 L28.656,30.168 C33.984,27.432 37.152,21.456 37.152,15.48 C37.152,4.824 30.384,7.10542736e-15 20.16,7.10542736e-15 L0,7.10542736e-15 L0,6.624 L19.08,6.624 C24.48,6.624 30.024,8.568 30.024,15.696 C30.024,22.536 24.912,25.56 19.152,25.56 L0,25.56 L0,50.256 Z" id="路径"></path>
            <path d="M45.504,7.56 L81.36,7.56 L81.36,7.10542736e-15 L45.504,7.10542736e-15 L45.504,7.56 Z M45.504,28.656 L81.36,28.656 L81.36,21.6 L45.504,21.6 L45.504,28.656 Z M45.504,50.256 L81.36,50.256 L81.36,42.624 L45.504,42.624 L45.504,50.256 Z" id="形状"></path>
            <path d="M91.512,50.256 L111.672,50.256 C126.504,50.256 133.056,39.528 133.056,25.128 C133.056,10.656 126.576,7.10542736e-15 111.672,7.10542736e-15 L91.512,7.10542736e-15 L91.512,7.56 L108.432,7.56 C119.88,7.56 124.848,13.752 124.848,25.128 C124.848,36.576 120.024,42.624 108.504,42.624 L91.512,42.624 L91.512,50.256 Z" id="路径"></path>
            <path d="M142.128,50.256 L162.216,50.256 C172.368,50.256 181.296,47.88 181.296,36.72 C181.296,29.304 173.952,25.704 166.896,24.408 L166.896,24.12 C173.016,22.464 176.76,18.504 176.76,12.312 C176.76,2.304 169.632,7.10542736e-15 160.2,7.10542736e-15 L142.128,7.10542736e-15 L142.128,6.264 L159.12,6.264 C164.304,6.264 169.56,6.912 169.56,13.464 C169.56,20.52 163.152,21.096 158.76,21.096 L142.128,21.096 L142.128,28.008 L159.696,28.008 C162.072,28.008 165.312,28.152 168.048,29.16 C170.712,30.312 173.016,32.4 173.016,36.216 C173.016,40.176 170.784,42.12 168.12,43.128 C166.68,43.56 165.312,43.704 163.872,43.848 C162.504,43.92 161.136,43.92 159.84,43.92 L142.128,43.92 L142.128,50.256 Z" id="路径"></path>
            <path d="M188.64,34.56 L196.488,34.56 L196.488,7.10542736e-15 L188.64,7.10542736e-15 L188.64,34.56 Z M188.64,50.256 L223.848,50.256 L223.848,42.624 L188.64,42.624 L188.64,50.256 Z" id="形状"></path>
            <path d="M230.76,7.10542736e-15 L230.76,32.4 C230.76,44.424 239.04,50.616 250.2,50.976 C250.2,48.456 250.272,45.936 250.272,43.344 C243.288,42.912 238.32,38.736 238.32,30.888 L238.32,7.10542736e-15 L230.76,7.10542736e-15 Z M263.88,31.248 L271.728,31.248 L271.728,7.10542736e-15 L263.88,7.10542736e-15 L263.88,31.248 Z" id="形状"></path>
            <path d="M281.664,7.56 L317.52,7.56 L317.52,7.10542736e-15 L281.664,7.10542736e-15 L281.664,7.56 Z M281.664,28.656 L317.52,28.656 L317.52,21.6 L281.664,21.6 L281.664,28.656 Z M281.664,50.256 L317.52,50.256 L317.52,42.624 L281.664,42.624 L281.664,50.256 Z" id="形状"></path>
        </g>
    </g>
</svg>