<?xml version="1.0" encoding="UTF-8"?>
<svg width="214px" height="114px" viewBox="0 0 214 114" version="1.1" xmlns="http://www.w3.org/2000/svg" xmlns:xlink="http://www.w3.org/1999/xlink">
    <title>编组 6</title>
    <g id="页面-1" stroke="none" stroke-width="1" fill="none" fill-rule="evenodd">
        <g id="编组-6" transform="translate(0.048, 2.9917)">
            <g id="赤" transform="translate(0, 3.8883)" fill="#FFFFFF" fill-rule="nonzero">
                <path d="M60.984,26.28 L60.336,28.368 L42.336,28.368 L42.336,66.816 L31.824,62.64 L34.2,61.848 L34.2,28.368 L23.112,28.368 C22.2,36.912 21.216,47.88 20.16,61.272 L19.656,66.96 L17.28,66.384 L18.432,53.784 C19.392,43.944 20.16,35.472 20.736,28.368 L0.144,28.368 L0.144,26.28 L25.992,26.28 L25.992,13.752 L6.696,13.752 L6.696,11.664 L25.992,11.664 L25.992,0 L34.776,0 L34.776,11.664 L53.784,11.664 L53.136,13.752 L34.776,13.752 L34.776,26.28 L60.984,26.28 Z M13.32,36.648 L14.904,37.8 L1.656,53.424 L0,51.984 L13.32,36.648 Z M54.072,39.456 C55.32,39.456 56.376,39.888 57.24,40.752 C58.104,41.616 58.536,42.648 58.536,43.848 C58.536,45.048 58.104,46.092 57.24,46.98 C56.376,47.868 55.32,48.312 54.072,48.312 C52.872,48.312 51.84,47.88 50.976,47.016 C50.112,46.152 49.68,45.096 49.68,43.848 C49.68,42.6 50.112,41.556 50.976,40.716 C51.84,39.876 52.872,39.456 54.072,39.456 Z" id="形状"></path>
            </g>
            <g id="琦" transform="translate(144.608, 3.0963)" fill="#FFFFFF" fill-rule="nonzero">
                <path d="M31.68,27.216 C34.896,21.168 37.56,16.032 39.672,11.808 L30.528,11.808 L30.528,9.792 L40.608,9.792 C41.712,7.584 43.224,4.32 45.144,0 L53.136,0 L48.6,9.792 L65.304,9.792 L64.584,11.808 L47.664,11.808 C44.4,18.528 41.856,23.616 40.032,27.072 L31.68,27.216 Z M26.568,50.832 L26.856,52.776 L0.504,58.176 L0,56.088 L9.504,54.216 L9.504,31.968 L1.944,31.968 L1.944,29.952 L9.504,29.952 L9.504,8.352 L1.296,8.352 L1.296,6.336 L26.424,6.336 L25.776,8.352 L17.784,8.352 L17.784,29.952 L24.624,29.952 L23.976,31.968 L17.784,31.968 L17.784,52.56 L26.568,50.832 Z M51.84,21.744 C51.84,20.544 52.248,19.536 53.064,18.72 C53.88,17.904 54.888,17.496 56.088,17.496 C57.24,17.496 58.236,17.904 59.076,18.72 C59.916,19.536 60.336,20.544 60.336,21.744 C60.336,22.896 59.916,23.88 59.076,24.696 C58.236,25.512 57.24,25.92 56.088,25.92 C54.888,25.92 53.88,25.512 53.064,24.696 C52.248,23.88 51.84,22.896 51.84,21.744 Z M67.968,30.024 L61.992,30.024 L61.992,67.536 L52.416,63.648 L54.648,62.856 L54.648,30.024 L24.84,30.024 L24.84,28.008 L68.688,28.008 L67.968,30.024 Z M29.952,34.704 L49.104,34.704 L49.104,52.776 L29.952,52.776 L29.952,34.704 Z M35.64,50.616 L43.056,50.616 L43.056,36.792 L35.64,36.792 L35.64,50.616 Z" id="形状"></path>
            </g>
            <g id="redblue" transform="translate(0.896, 84.8803)" fill="#FFFFFF" fill-rule="nonzero">
                <path d="M0,25.128 L3.888,25.128 L3.888,15.876 L10.512,15.876 L15.336,25.128 L19.584,25.128 L13.824,15.336 L14.328,15.084 C16.992,13.716 18.576,10.728 18.576,7.74 C18.576,2.412 15.192,0 10.08,0 L0,0 L0,3.312 L9.54,3.312 C12.24,3.312 15.012,4.284 15.012,7.848 C15.012,11.268 12.456,12.78 9.576,12.78 L0,12.78 L0,25.128 Z" id="路径"></path>
                <path d="M30.752,3.78 L48.68,3.78 L48.68,0 L30.752,0 L30.752,3.78 Z M30.752,14.328 L48.68,14.328 L48.68,10.8 L30.752,10.8 L30.752,14.328 Z M30.752,25.128 L48.68,25.128 L48.68,21.312 L30.752,21.312 L30.752,25.128 Z" id="形状"></path>
                <path d="M61.756,25.128 L71.836,25.128 C79.252,25.128 82.528,19.764 82.528,12.564 C82.528,5.328 79.288,0 71.836,0 L61.756,0 L61.756,3.78 L70.216,3.78 C75.94,3.78 78.424,6.876 78.424,12.564 C78.424,18.288 76.012,21.312 70.252,21.312 L61.756,21.312 L61.756,25.128 Z" id="路径"></path>
                <path d="M95.064,25.128 L105.108,25.128 C110.184,25.128 114.648,23.94 114.648,18.36 C114.648,14.652 110.976,12.852 107.448,12.204 L107.448,12.06 C110.508,11.232 112.38,9.252 112.38,6.156 C112.38,1.152 108.816,0 104.1,0 L95.064,0 L95.064,3.132 L103.56,3.132 C106.152,3.132 108.78,3.456 108.78,6.732 C108.78,10.26 105.576,10.548 103.38,10.548 L95.064,10.548 L95.064,14.004 L103.848,14.004 C105.036,14.004 106.656,14.076 108.024,14.58 C109.356,15.156 110.508,16.2 110.508,18.108 C110.508,20.088 109.392,21.06 108.06,21.564 C107.34,21.78 106.656,21.852 105.936,21.924 C105.252,21.96 104.568,21.96 103.92,21.96 L95.064,21.96 L95.064,25.128 Z" id="路径"></path>
                <path d="M126.32,17.28 L130.244,17.28 L130.244,0 L126.32,0 L126.32,17.28 Z M126.32,25.128 L143.924,25.128 L143.924,21.312 L126.32,21.312 L126.32,25.128 Z" id="形状"></path>
                <path d="M155.38,0 L155.38,16.2 C155.38,22.212 159.52,25.308 165.1,25.488 C165.1,24.228 165.136,22.968 165.136,21.672 C161.644,21.456 159.16,19.368 159.16,15.444 L159.16,0 L155.38,0 Z M171.94,15.624 L175.864,15.624 L175.864,0 L171.94,0 L171.94,15.624 Z" id="形状"></path>
                <path d="M188.832,3.78 L206.76,3.78 L206.76,0 L188.832,0 L188.832,3.78 Z M188.832,14.328 L206.76,14.328 L206.76,10.8 L188.832,10.8 L188.832,14.328 Z M188.832,25.128 L206.76,25.128 L206.76,21.312 L188.832,21.312 L188.832,25.128 Z" id="形状"></path>
            </g>
            <g id="logo-(1)" transform="translate(68.952, 0)">
                <circle id="椭圆形" fill="#FFFFFF" fill-rule="nonzero" cx="34.8519392" cy="37.3816409" r="4.38875681"></circle>
                <path d="M6.57143061,44.7953305 C10.1543618,46.6962031 15.0131826,48.2233581 20.6694253,49.1941992 C25.0484853,49.9458239 29.9055078,50.3640025 35.018463,50.3640025 C39.8463179,50.3640025 44.4459862,49.9911593 48.6305468,49.3168069" id="路径" stroke="#FFFF00" stroke-width="2"></path>
                <path d="M48.8785657,24.7236145 C44.6280036,24.0237679 39.9418885,23.6360172 35.018463,23.6360172 C29.9856707,23.6360172 25.2008489,24.0411859 20.8757469,24.7707139 C15.363866,25.7004195 10.5986061,27.1569101 7.01822822,28.9729334" id="路径" stroke="#FFFF00" stroke-width="2"></path>
                <path d="M58.4492986,38.7813153 C57.6947774,38.6242934 56.9234329,38.4775723 56.1365597,38.3416462 C51.7380738,37.5818431 46.8543731,37.1593431 41.711552,37.1604267" id="路径" stroke="#FF0000" stroke-width="4" transform="translate(50.0804, 37.9709) rotate(60) translate(-50.0804, -37.9709)"></path>
                <path d="M29.2096046,61.9835835 C34.8942644,61.0866441 39.8262877,59.6347032 43.5425174,57.8047326" id="路径" stroke="#FF0000" stroke-width="4" transform="translate(36.3761, 59.8942) rotate(60) translate(-36.3761, -59.8942)"></path>
                <path d="M35.0213609,50.3690423 C40.0172033,50.3701109 44.7685247,49.9714488 49.0680667,49.2521591 C53.5499726,48.502361 57.5409622,47.4041599 60.8062707,46.0471723 C66.5304521,43.6683332 70.0245342,40.4942139 70.0237789,37.0076008 C70.0237789,34.0103008 67.4398432,31.2428183 63.0775446,29.0122158 C59.307735,27.0845746 54.2093469,25.5578788 48.3010181,24.6302985 C44.2043022,23.987133 39.7181866,23.6320077 35.0155644,23.6309778 C29.7295191,23.6298401 24.7172278,24.0762314 20.2242056,24.8764362 C16.0344067,25.6226371 12.2961536,26.676507 9.20853291,27.962049 C3.49747239,30.3398696 0.0123921676,33.5103001 0.0131469276,36.9924195 C0.0131469276,39.8875507 2.42397058,42.5682651 6.51952194,44.7578416 C10.320056,46.789695 15.5718861,48.3986191 21.6962996,49.3634889 C25.8037016,50.0105889 30.3035789,50.3680027 35.0213609,50.3690423 Z" id="椭圆形" stroke="#0000FF" stroke-width="4" transform="translate(35.0185, 37) rotate(120) translate(-35.0185, -37)"></path>
                <path d="M51.919039,67.7649818 C56.5150871,65.5017652 59.252186,62.6603327 59.252186,59.5754569 C59.2528966,56.2942116 56.1583496,53.2897315 51.0227019,50.9644178 C47.7822041,49.4971882 43.7290676,48.3003601 39.1281153,47.4750226" id="路径" stroke="#FF0000" stroke-width="4" transform="translate(49.1902, 57.62) rotate(60) translate(-49.1902, -57.62)"></path>
                <path d="M40.4378752,14.2492961 C35.536122,14.2503711 30.8695993,14.6361633 26.6341069,15.3318668 C20.4411925,16.3490878 15.1697669,18.0288606 11.4318776,20.137323 C7.64341149,22.2743147 5.4296613,24.8516755 5.4296613,27.6259212 C5.4296613,30.7052851 8.15442468,33.5408926 12.7346444,35.80014 C16.261298,37.5397035 20.8875838,38.9375655 26.2157593,39.8418967 C30.5598266,40.579199 35.370451,40.9884436 40.4320787,40.987367 C45.1564062,40.9863237 49.6622238,40.6279187 53.7742335,39.9791158" id="路径" stroke="#FF0000" stroke-width="4" transform="translate(29.6019, 27.6183) rotate(60) translate(-29.6019, -27.6183)"></path>
                <path d="M7.01822822,28.9729334 C2.61174333,31.207971 0,33.9875932 0,37.0000098 C0,39.9091621 2.43575339,42.6012065 6.57143061,44.7953305" id="路径" stroke="#FFFF00" stroke-width="2"></path>
                <path d="M60.5752723,46.1363748 C66.4435382,43.7466647 70.036926,40.5334834 70.036926,37.0000098 C70.036926,34.0485087 67.5297413,31.3204823 63.2838062,29.1091861 C59.6150035,27.1984623 54.6480078,25.6735416 48.8785657,24.7236145" id="路径" stroke="#FFFF00" stroke-width="2"></path>
                <path d="M48.6305468,49.3168069 C53.1838962,48.5830233 57.2457463,47.4922441 60.5752723,46.1363748 C66.4435382,43.7466647 70.036926,40.5334834 70.036926,37.0000098 C70.036926,34.0485087 67.5297413,31.3204823 63.2838062,29.1091861" id="路径" stroke="#FFFF00" stroke-width="2"></path>
            </g>
        </g>
    </g>
</svg>