<?xml version="1.0" standalone="no"?> <!DOCTYPE svg PUBLIC "-//W3C//DTD SVG 1.1//EN" "http://www.w3.org/Graphics/SVG/1.1/DTD/svg11.dtd" > <svg xmlns="http://www.w3.org/2000/svg" xmlns:xlink="http://www.w3.org/1999/xlink" version="1.1" viewBox="0 0 256 256">  <g transform="matrix(1 0 0 -1 0 204)">  <path fill="#ffffff" d="M94 206q-8 -3 -9 -3.5t-1 -1.5v-1.5t0.5 -0.5h1.5h1.5h3h5h6h4.5t3.5 -1t7 -3t5 -3.5t1 -8.5t1 -10t0.5 -6v-4t-0.5 -2.5t-11 -12.5t-13.5 -13t-5.5 -3.5t-4 -1.5t-7 2t-8.5 2.5t-5 1t-2.5 0.5h-1.5t-1.5 -1.5t0 -2.5t1.5 -2t9.5 -5t13 -5.5l10.5 -3.5t6 -3t-3.5 -5 t-5.5 -6t-2 -2.5t0.5 -1.5t1.5 -2t4.5 0.5t8 5l11 8.5t15 8t9 0t0.5 -4t-2 -3t-8 -5.5l-11 -6.5l-10 -6t-8 -5t-17 -10.5l-23.5 -14t-11.5 -5.5h-3t-2.5 -1.5t-1.5 -2.5v-1.5t0.5 -1.5t1 -1.5t2 -2.5t3 -2t5 1.5t5.5 2.5t3.5 1.5l1.5 0.5h1t6.5 2.5t10.5 5.5t7.5 4t4.5 2 t2 0.5t1 -0.5t0.5 -1.5t-1.5 -4t-1.5 -4t-1.5 -4t-1.5 -4.5t-1 -5t-0.5 -4t0.5 -3t1.5 -6.5t4.5 -8.5t6.5 -4h4t2 1l2.5 2.5l4.5 4.5t4.5 5t3 6t2.5 6t2 5.5t2 5.5l2 4t1.5 4.5t0.5 3.5t0.5 3.5t1.5 4t2 1.5t2 -0.5t1 0t-1 -11.5t-1 -16t-0.5 -8.5t-1 -5.5t-0.5 -2.5 t-0.5 -5t-0.5 -6t-0.5 -8.5t-1 -6.5t-6 0.5l-11 2t-10 2.5t-10 5t-9.5 6.5t-5 4t-1 2t-0.5 3t-1.5 2.5t-4 -1.5t-8 -5t-13 -6.5t-10.5 -3.5h-5t-9.5 7.5t-9.5 12t-4 7.5t-2 3.5t-1 0.5h-2.5t-3 -2t-0.5 -5.5t0.5 -6.5t2.5 -11t4 -11t3 -5.5t3 -3.5t9 -4.5t13.5 -6t7 -3 t3 -0.5t3.5 0.5t2.5 1l2 1t3 3.5l-2 4l-1.5 4.5t-0.5 2t0.5 1.5t2 3t3.5 3.5t6.5 6t5.5 4.5t4.5 -4t5 -5.5l3 -3t2 -2.5t2.5 -4t12.5 -9t18.5 -9t10 -3.5t4.5 -1.5t3 -1.5t1.5 -0.5t2.5 -0.5t3 -0.5h4h3t2 1.5l3 3t1.5 2v3.5v6v3.5t-1.5 6t-2 6.5t-1 3.5t-1 4.5t-1 3.5 t-1 3.5t-0.5 3t-0.5 1.5t-0.5 3.5t-0.5 6.5t-1 9t-0.5 6.5t1 1.5t1.5 1.5t1 1t3 -0.5t4 -0.5t3 -0.5t2 -0.5t1 -0.5t2 -1t3.5 -1.5t8 -3.5t13 -7.5t9.5 -8.5t6.5 -8.5h12h11t1.5 1t1.5 2t1 1.5t-1 4.5t-2.5 8t-3 5.5t-6.5 4t-9.5 5l-4.5 2.5l-9.5 2.5t-16.5 4t-7.5 1.5 t-8.5 -1t-10.5 -1h-3t-1.5 1l-2 2t-1 1.5v2.5t0.5 3t1 3t1 3t1.5 3.5l1 2.5l-0.5 1l-1.5 3t-2.5 2t-4 -0.5t-5.5 -1.5t-5.5 -4t-7 -10l-11 -17.5t-8.5 -13.5t-3.5 -2t-2.5 1.5t-0.5 2t3.5 8t7 14t6.5 11t6.5 5.5t5.5 2.5t3 2l2.5 2.5t3.5 3t7 4t11 4.5t13 4.5t8.5 3.5t0.5 4 t-2 3t-7.5 3.5t-9.5 3.5t-3.5 0.5h-2.5t-2.5 -0.5t-3.5 -1.5t-4 0t-1.5 3v3.5t1 2.5l8 8l15 14.5t11 11.5t3 5.5v3t-1.5 3t-4 2t-3.5 0.5t-5 0.5t-7.5 1t-7 0.5t-7.5 0.5t-4.5 0.5t-1 0.5t-2.5 2t-3.5 2.5t-5.5 5.5t-8 6t-11.5 3.5t-11 2.5l-3.5 0.5l-3 -0.5z" />  </g> </svg>