<svg xmlns="http://www.w3.org/2000/svg" xmlns:xlink="http://www.w3.org/1999/xlink" id="图层_1" x="0" y="0" version="1.1" viewBox="0 0 1200 783" xml:space="preserve" style="enable-background:new 0 0 1200 783"><style type="text/css">.st0{fill:#221e1f}.st1{fill:#e60012}</style><g><g><g><polygon points="1043.2 299.5 1055.2 302 1055.2 285.6 1043.2 288" class="st0"/><polygon points="1021.6 136.1 1055.2 136.1 1055.2 123.1 1021.6 135.9" class="st0"/><path d="M941.5,782.8h113.9V505.6h-55.9v-8.1l29.6-10.9v-0.2l-29.6-10.7v-8.1h55.9v-32.2l-55.9-13.2v-7.1l55.9-13.2 v-42c-1.3,5.5-5.8,10.3-13.1,10.3h-29.6c-9.1,0-13.7-7.2-13.7-14.1s4.5-14.1,13.7-14.1h2.8v8.4h-2.8c-3.8,0-5.7,2.6-5.7,5.7 s1.8,5.7,5.7,5.7h29.6c3.8,0,5.7-2.6,5.7-5.7s-1.8-5.7-5.7-5.7h-10.5v6.8h-7v-14.9h17.7c7.4,0,11.8,4.8,13.1,10.3v-42l-55.9-13.2 v-7.1l55.9-13.2v-29.5h-7.3l-41.3-15.8v15h-7.6v-24.2h6.4l42,16.3v-16.3h7.6v-33.6h-55.9v-8.4h55.9v-35.9h-55.9v-8l33.7-12.7 v-0.2h-33.7v-8.4h55.9V79.5h-55.9V54.3h7.6V71h16.5V56.5h7.6V71h16.5V54.3h8V0H941.8v782.8H941.5z" class="st0"/><polygon points="1043.2 424.6 1055.2 427 1055.2 410.6 1043.2 413.1" class="st0"/><polygon points="1021.2 476.3 1045.3 484.6 1045.3 488.9 1021.2 497 1021.2 497.3 1055.2 497.3 1055.2 476.1 1021.2 476.1" class="st0"/><polygon points="1035.6 423 1035.6 414.6 1015.3 418.7 1015.3 418.9" class="st0"/><polygon points="1035.6 298 1035.6 289.5 1015.3 293.7 1015.3 293.8" class="st0"/><polygon points="1138 108.8 1070.8 108.8 1070.8 391.4 1101.8 674.2 1200 674.2" class="st0"/><polygon points="795.9 108.8 780.4 163.1 827.6 163.1 827.6 456.6 786.6 510.6 744.8 282.8 651.8 282.8 703.5 565.4 744.8 565.4 620.7 728.5 753.1 728.5 900 535.7 900 108.8" class="st0"/><polygon points="811.4 0 697.7 0 631.1 233.8 744.8 233.8" class="st0"/></g><path d="M1042.8,701.2c6.9,0,13,5.8,13,13.3c0,6.4-2.9,13.8-13.1,13.8h-30.9c-7.3,0-12.8-5.5-12.8-13.7 c0-7.8,5.5-13.5,13.4-13.5h3.2v8.4h-2.6c-3.2,0-5.8,2-5.8,5.2c0,4.1,2.8,5.2,6.6,5.2h28.6c3.2,0,5.7-1.4,5.7-5.1 c0-2.3-1.3-5.2-5.7-5.2h-2.8v-8.6H1042.8z M999.3,666.1v-8.4h56.1v8.4H999.3z M1006.9,615.8v9.8h-7.6v-27.9h7.6v9.8h48.5v8.4 h-48.5V615.8z M1031.5,557.9l-32.3,11.5v-8.9l22.2-6.8v-0.2l-22.2-6.8V538l32.3,11.5h23.6v8.4L1031.5,557.9L1031.5,557.9z" class="st1"/></g><g><polygon points="186.3 152.2 113.9 152.2 113.9 206.5 82.8 206.5 82.8 76.1 113.9 76.1 113.9 130.4 186.3 130.4 186.3 21.8 10.4 21.8 10.4 261 186.3 261" class="st0"/><polygon points="413.9 108.8 413.9 0 300 0 300 108.8 206.9 108.8 206.9 152.2 517.2 152.2 517.2 233.8 579.3 233.8 579.3 108.8" class="st0"/><polygon points="434.5 233.8 496.6 233.8 496.6 179.4 206.9 179.4 206.9 282.8 0 282.8 0 326.2 206.9 326.2 206.9 782.8 289.6 782.8 289.6 233.8 341.5 233.8 341.5 326.2 579.3 326.2 579.3 293.5 434.5 293.5" class="st0"/><polygon points="538 358.9 320.7 358.9 320.7 413.2 475.9 413.2 475.9 782.8 579.3 782.8 579.3 641.5 538 641.5" class="st0"/><rect width="113.9" height="337.1" x="320.7" y="445.9" class="st0"/><polygon points="150.1 342.5 46.6 342.5 46.6 435 46.6 467.5 98.7 467.5 0 782.8 98.1 782.8 206.9 435 150.1 435" class="st0"/><rect width="113.9" height="43.4" x="434.5" y="32.7" class="st0"/></g></g></svg>